<svg width="192" height="192" viewBox="0 0 192 192" fill="none" xmlns="http://www.w3.org/2000/svg">
<path d="M16.227 29.6445H175.776C183.909 29.6445 190.5 36.2355 190.5 44.3685V46.4205C190.5 54.5535 183.906 61.1475 175.773 61.1475H16.23C8.097 61.1505 1.503 54.5565 1.5 46.4235V46.4205V44.3685C1.5 36.2355 8.091 29.6445 16.227 29.6445Z" fill="white"/>
<path d="M175.773 31.1445C183.072 31.1535 188.991 37.0695 189 44.3685V46.4205C188.991 53.7225 183.075 59.6385 175.773 59.6475H16.227C8.925 59.6385 3.009 53.7195 3 46.4205V44.3685C3.009 37.0665 8.925 31.1505 16.227 31.1415H175.773M175.773 28.1385H16.227C7.266 28.1385 0 35.4045 0 44.3685V46.4205C0 55.3815 7.266 62.6475 16.227 62.6475H175.773C184.734 62.6475 192 55.3815 192 46.4205V44.3685C192 35.4045 184.734 28.1385 175.773 28.1385Z" fill="#AAC1CE"/>
<path d="M16.227 75.0735H175.773C183.906 75.0735 190.5 81.6675 190.5 89.8005V91.8525C190.5 99.9855 183.906 106.579 175.773 106.579H16.23C8.097 106.582 1.503 99.9885 1.5 91.8555V91.8525V89.7975C1.5 81.6645 8.091 75.0735 16.224 75.0735H16.227Z" fill="white"/>
<path d="M175.773 76.5735C183.075 76.5825 188.991 82.4985 189 89.8005V91.8525C188.991 99.1545 183.075 105.07 175.773 105.079H16.227C8.925 105.07 3.009 99.1515 3 91.8525V89.8005C3.009 82.4985 8.925 76.5825 16.227 76.5735H175.773ZM175.773 73.5735H16.227C7.266 73.5735 0 80.8365 0 89.8005V91.8525C0 100.813 7.266 108.079 16.227 108.079H175.773C184.734 108.079 192 100.813 192 91.8525V89.8005C192 80.8365 184.734 73.5735 175.773 73.5735Z" fill="#AAC1CE"/>
<path d="M20.028 95.4405C22.5696 95.4405 24.63 93.3801 24.63 90.8385C24.63 88.2969 22.5696 86.2365 20.028 86.2365C17.4864 86.2365 15.426 88.2969 15.426 90.8385C15.426 93.3801 17.4864 95.4405 20.028 95.4405Z" fill="#25B6D2"/>
<path d="M36.705 95.4405C39.2466 95.4405 41.307 93.3801 41.307 90.8385C41.307 88.2969 39.2466 86.2365 36.705 86.2365C34.1634 86.2365 32.103 88.2969 32.103 90.8385C32.103 93.3801 34.1634 95.4405 36.705 95.4405Z" fill="#25B6D2"/>
<path d="M53.382 95.4405C55.9236 95.4405 57.984 93.3801 57.984 90.8385C57.984 88.2969 55.9236 86.2365 53.382 86.2365C50.8404 86.2365 48.78 88.2969 48.78 90.8385C48.78 93.3801 50.8404 95.4405 53.382 95.4405Z" fill="#25B6D2"/>
<path d="M70.059 95.4405C72.6006 95.4405 74.661 93.3801 74.661 90.8385C74.661 88.2969 72.6006 86.2365 70.059 86.2365C67.5174 86.2365 65.457 88.2969 65.457 90.8385C65.457 93.3801 67.5174 95.4405 70.059 95.4405Z" fill="#25B6D2"/>
<path d="M86.736 95.4405C89.2776 95.4405 91.338 93.3801 91.338 90.8385C91.338 88.2969 89.2776 86.2365 86.736 86.2365C84.1944 86.2365 82.134 88.2969 82.134 90.8385C82.134 93.3801 84.1944 95.4405 86.736 95.4405Z" fill="#25B6D2"/>
<path d="M103.413 95.4405C105.955 95.4405 108.015 93.3801 108.015 90.8385C108.015 88.2969 105.955 86.2365 103.413 86.2365C100.871 86.2365 98.811 88.2969 98.811 90.8385C98.811 93.3801 100.871 95.4405 103.413 95.4405Z" fill="#25B6D2"/>
<path d="M15.585 52.1565V39.0765H17.43L21.63 45.6945C22.503 47.0595 23.289 48.4785 23.976 49.9455L24 49.9245C23.844 48.1785 23.808 46.5885 23.808 44.5485V39.0765H25.398V52.1565H23.7L19.545 45.5175C18.645 44.1135 17.826 42.6555 17.1 41.1525L17.04 41.1705C17.136 42.8205 17.178 44.3925 17.178 46.5705V52.1595L15.585 52.1565Z" fill="#25B6D2"/>
<path d="M33.492 52.1565L33.357 50.9715H33.3C32.622 51.8745 31.554 52.3935 30.426 52.3695C28.953 52.4775 27.669 51.3705 27.561 49.8945C27.555 49.8195 27.552 49.7445 27.555 49.6695C27.555 47.3985 29.574 46.1565 33.204 46.1775V45.9825C33.342 44.9205 32.592 43.9485 31.53 43.8105C31.377 43.7895 31.221 43.7895 31.068 43.8075C30.204 43.8105 29.358 44.0535 28.623 44.5065L28.236 43.3815C29.166 42.8205 30.234 42.5325 31.32 42.5475C34.194 42.5475 34.89 44.5065 34.89 46.3875V49.9035C34.878 50.6565 34.929 51.4095 35.046 52.1535L33.492 52.1565ZM33.24 47.3565C31.377 47.3145 29.262 47.6565 29.262 49.4715C29.187 50.2965 29.796 51.0255 30.621 51.1005C30.705 51.1065 30.789 51.1095 30.873 51.1005C31.89 51.1275 32.808 50.4915 33.144 49.5315C33.204 49.3545 33.237 49.1715 33.24 48.9855V47.3565Z" fill="#25B6D2"/>
<path d="M37.641 45.3015C37.641 44.3325 37.62 43.5345 37.563 42.7605H39.063L39.141 44.2605H39.201C39.777 43.1715 40.92 42.5025 42.15 42.5355C43.35 42.5235 44.421 43.2795 44.808 44.4165H44.847C45.108 43.9395 45.465 43.5255 45.897 43.1955C46.491 42.7395 47.226 42.5055 47.973 42.5355C49.215 42.5355 51.057 43.3485 51.057 46.6095V52.1415H49.389V46.8405C49.389 45.0405 48.729 43.9485 47.349 43.9485C46.416 43.9875 45.609 44.6115 45.33 45.5025C45.243 45.7785 45.195 46.0665 45.195 46.3545V52.1595H43.524V46.5285C43.524 45.0285 42.864 43.9485 41.565 43.9485C40.566 44.0055 39.717 44.6925 39.45 45.6555C39.354 45.9225 39.306 46.2045 39.312 46.4895V52.1565H37.644L37.641 45.3015Z" fill="#25B6D2"/>
<path d="M54.768 47.7705C54.618 49.4205 55.836 50.8785 57.486 51.0285C57.654 51.0435 57.822 51.0435 57.99 51.0315C58.881 51.0585 59.769 50.8935 60.591 50.5455L60.891 51.7695C59.901 52.1805 58.839 52.3755 57.768 52.3485C55.365 52.5015 53.292 50.6745 53.139 48.2685C53.124 48.0495 53.127 47.8305 53.148 47.6145C52.866 45.1125 54.666 42.8595 57.168 42.5775C57.297 42.5625 57.426 42.5535 57.555 42.5505C59.754 42.5925 61.503 44.4075 61.461 46.6035C61.458 46.7265 61.452 46.8525 61.437 46.9755C61.434 47.2425 61.413 47.5095 61.377 47.7735L54.768 47.7705ZM59.775 46.5465C59.967 45.2175 59.043 43.9875 57.714 43.7955C57.612 43.7805 57.51 43.7715 57.408 43.7715C55.95 43.8795 54.813 45.0825 54.789 46.5465H59.775Z" fill="#25B6D2"/>
</svg>
