<svg width="512" height="512" viewBox="0 0 512 512" fill="none" xmlns="http://www.w3.org/2000/svg">
<path d="M43.272 79.052H468.736C490.424 79.052 508 96.628 508 118.316V123.788C508 145.476 490.416 163.06 468.728 163.06H43.28C21.592 163.068 4.008 145.484 4 123.796V123.788V118.316C4 96.628 21.576 79.052 43.272 79.052Z" fill="white"/>
<path d="M468.728 83.052C488.192 83.076 503.976 98.852 504 118.316V123.788C503.976 143.26 488.2 159.036 468.728 159.06H43.272C23.8 159.036 8.024 143.252 8 123.788V118.316C8.024 98.844 23.8 83.068 43.272 83.044H468.728M468.728 75.036H43.272C19.376 75.036 0 94.412 0 118.316V123.788C0 147.684 19.376 167.06 43.272 167.06H468.728C492.624 167.06 512 147.684 512 123.788V118.316C512 94.412 492.624 75.036 468.728 75.036Z" fill="#AAC1CE"/>
<path d="M43.272 200.196H468.728C490.416 200.196 508 217.78 508 239.468V244.94C508 266.628 490.416 284.212 468.728 284.212H43.28C21.592 284.22 4.008 266.636 4 244.948V244.94V239.46C4 217.772 21.576 200.196 43.264 200.196H43.272Z" fill="white"/>
<path d="M468.728 204.196C488.2 204.22 503.976 219.996 504 239.468V244.94C503.976 264.412 488.2 280.188 468.728 280.212H43.272C23.8 280.188 8.024 264.404 8 244.94V239.468C8.024 219.996 23.8 204.22 43.272 204.196H468.728ZM468.728 196.196H43.272C19.376 196.196 0 215.564 0 239.468V244.94C0 268.836 19.376 288.212 43.272 288.212H468.728C492.624 288.212 512 268.836 512 244.94V239.468C512 215.564 492.624 196.196 468.728 196.196Z" fill="#AAC1CE"/>
<path d="M53.408 254.508C60.1856 254.508 65.68 249.014 65.68 242.236C65.68 235.458 60.1856 229.964 53.408 229.964C46.6303 229.964 41.136 235.458 41.136 242.236C41.136 249.014 46.6303 254.508 53.408 254.508Z" fill="#25B6D2"/>
<path d="M97.88 254.508C104.658 254.508 110.152 249.014 110.152 242.236C110.152 235.458 104.658 229.964 97.88 229.964C91.1023 229.964 85.608 235.458 85.608 242.236C85.608 249.014 91.1023 254.508 97.88 254.508Z" fill="#25B6D2"/>
<path d="M142.352 254.508C149.13 254.508 154.624 249.014 154.624 242.236C154.624 235.458 149.13 229.964 142.352 229.964C135.574 229.964 130.08 235.458 130.08 242.236C130.08 249.014 135.574 254.508 142.352 254.508Z" fill="#25B6D2"/>
<path d="M186.824 254.508C193.602 254.508 199.096 249.014 199.096 242.236C199.096 235.458 193.602 229.964 186.824 229.964C180.046 229.964 174.552 235.458 174.552 242.236C174.552 249.014 180.046 254.508 186.824 254.508Z" fill="#25B6D2"/>
<path d="M231.296 254.508C238.074 254.508 243.568 249.014 243.568 242.236C243.568 235.458 238.074 229.964 231.296 229.964C224.518 229.964 219.024 235.458 219.024 242.236C219.024 249.014 224.518 254.508 231.296 254.508Z" fill="#25B6D2"/>
<path d="M275.768 254.508C282.546 254.508 288.04 249.014 288.04 242.236C288.04 235.458 282.546 229.964 275.768 229.964C268.99 229.964 263.496 235.458 263.496 242.236C263.496 249.014 268.99 254.508 275.768 254.508Z" fill="#25B6D2"/>
<path d="M41.56 139.084V104.204H46.48L57.68 121.852C60.008 125.492 62.104 129.276 63.936 133.188L64 133.132C63.584 128.476 63.488 124.236 63.488 118.796V104.204H67.728V139.084H63.2L52.12 121.38C49.72 117.636 47.536 113.748 45.6 109.74L45.44 109.788C45.696 114.188 45.808 118.38 45.808 124.188V139.092L41.56 139.084Z" fill="#25B6D2"/>
<path d="M89.312 139.084L88.952 135.924H88.8C86.992 138.332 84.144 139.716 81.136 139.652C77.208 139.94 73.784 136.988 73.496 133.052C73.48 132.852 73.472 132.652 73.48 132.452C73.48 126.396 78.864 123.084 88.544 123.14V122.62C88.912 119.788 86.912 117.196 84.08 116.828C83.672 116.772 83.256 116.772 82.848 116.82C80.544 116.828 78.288 117.476 76.328 118.684L75.296 115.684C77.776 114.188 80.624 113.42 83.52 113.46C91.184 113.46 93.04 118.684 93.04 123.7V133.076C93.008 135.084 93.144 137.092 93.456 139.076L89.312 139.084ZM88.64 126.284C83.672 126.172 78.032 127.084 78.032 131.924C77.832 134.124 79.456 136.068 81.656 136.268C81.88 136.284 82.104 136.292 82.328 136.268C85.04 136.34 87.488 134.644 88.384 132.084C88.544 131.612 88.632 131.124 88.64 130.628V126.284Z" fill="#25B6D2"/>
<path d="M100.376 120.804C100.376 118.22 100.32 116.092 100.168 114.028H104.168L104.376 118.028H104.536C106.072 115.124 109.12 113.34 112.4 113.428C115.6 113.396 118.456 115.412 119.488 118.444H119.592C120.288 117.172 121.24 116.068 122.392 115.188C123.976 113.972 125.936 113.348 127.928 113.428C131.24 113.428 136.152 115.596 136.152 124.292V139.044H131.704V124.908C131.704 120.108 129.944 117.196 126.264 117.196C123.776 117.3 121.624 118.964 120.88 121.34C120.648 122.076 120.52 122.844 120.52 123.612V139.092H116.064V124.076C116.064 120.076 114.304 117.196 110.84 117.196C108.176 117.348 105.912 119.18 105.2 121.748C104.944 122.46 104.816 123.212 104.832 123.972V139.084H100.384L100.376 120.804Z" fill="#25B6D2"/>
<path d="M146.048 127.388C145.648 131.788 148.896 135.676 153.296 136.076C153.744 136.116 154.192 136.116 154.64 136.084C157.016 136.156 159.384 135.716 161.576 134.788L162.376 138.052C159.736 139.148 156.904 139.668 154.048 139.596C147.64 140.004 142.112 135.132 141.704 128.716C141.664 128.132 141.672 127.548 141.728 126.972C140.976 120.3 145.776 114.292 152.448 113.54C152.792 113.5 153.136 113.476 153.48 113.468C159.344 113.58 164.008 118.42 163.896 124.276C163.888 124.604 163.872 124.94 163.832 125.268C163.824 125.98 163.768 126.692 163.672 127.396L146.048 127.388ZM159.4 124.124C159.912 120.58 157.448 117.3 153.904 116.788C153.632 116.748 153.36 116.724 153.088 116.724C149.2 117.012 146.168 120.22 146.104 124.124H159.4Z" fill="#25B6D2"/>
</svg>
